<?xml version="1.0" encoding="utf-8"?>
<svg version="1.1" xmlns:xlink="http://www.w3.org/1999/xlink" width="12px" height="12px" viewBox="375 342  12 12" xmlns="http://www.w3.org/2000/svg">
  <path d="M 381 342  C 384.36 342  387 344.64  387 348  C 387 351.36  384.36 354  381 354  C 377.64 354  375 351.36  375 348  C 375 344.64  377.64 342  381 342  Z " fill-rule="nonzero" fill="#ffffff" stroke="none" />
  <path d="M 381 342.5  C 384.08 342.5  386.5 344.92  386.5 348  C 386.5 351.08  384.08 353.5  381 353.5  C 377.92 353.5  375.5 351.08  375.5 348  C 375.5 344.92  377.92 342.5  381 342.5  Z " stroke-width="1" stroke="#797979" fill="none" />
  <path d="M 381 351  C 379.32 351  378 349.68  378 348  C 378 346.32  379.32 345  381 345  C 382.68 345  384 346.32  384 348  C 384 349.68  382.68 351  381 351  " fill-rule="nonzero" fill="#797979" stroke="none" />
</svg>