<?xml version="1.0" encoding="utf-8"?>
<svg version="1.1" xmlns:xlink="http://www.w3.org/1999/xlink" width="12px" height="12px" viewBox="375 288  12 12" xmlns="http://www.w3.org/2000/svg">
  <path d="M 381 288  C 384.36 288  387 290.64  387 294  C 387 297.36  384.36 300  381 300  C 377.64 300  375 297.36  375 294  C 375 290.64  377.64 288  381 288  Z " fill-rule="nonzero" fill="#ffffff" stroke="none" />
  <path d="M 381 288.5  C 384.08 288.5  386.5 290.92  386.5 294  C 386.5 297.08  384.08 299.5  381 299.5  C 377.92 299.5  375.5 297.08  375.5 294  C 375.5 290.92  377.92 288.5  381 288.5  Z " stroke-width="1" stroke="#797979" fill="none" />
  <path d="M 381 297  C 379.32 297  378 295.68  378 294  C 378 292.32  379.32 291  381 291  C 382.68 291  384 292.32  384 294  C 384 295.68  382.68 297  381 297  " fill-rule="nonzero" fill="#797979" stroke="none" />
</svg>