<?xml version="1.0" encoding="utf-8"?>
<svg version="1.1" xmlns:xlink="http://www.w3.org/1999/xlink" width="1210px" height="800px" xmlns="http://www.w3.org/2000/svg">
  <g transform="matrix(1 0 0 1 0 -29 )">
    <path d="M 1 34  A 4 4 0 0 1 5 30 L 1205 30  A 4 4 0 0 1 1209 34 L 1209 824  A 4 4 0 0 1 1205 828 L 5 828  A 4 4 0 0 1 1 824 L 1 34  Z " fill-rule="nonzero" fill="#ffffff" stroke="none" />
    <path d="M 0.5 34  A 4.5 4.5 0 0 1 5 29.5 L 1205 29.5  A 4.5 4.5 0 0 1 1209.5 34 L 1209.5 824  A 4.5 4.5 0 0 1 1205 828.5 L 5 828.5  A 4.5 4.5 0 0 1 0.5 824 L 0.5 34  Z " stroke-width="1" stroke="#aaaaaa" fill="none" stroke-opacity="0.250980392156863" />
  </g>
</svg>