<?xml version="1.0" encoding="utf-8"?>
<svg version="1.1" xmlns:xlink="http://www.w3.org/1999/xlink" width="1209px" height="439px" xmlns="http://www.w3.org/2000/svg">
  <g transform="matrix(1 0 0 1 5 -781 )">
    <path d="M -4 786  A 4 4 0 0 1 0 782 L 1199 782  A 4 4 0 0 1 1203 786 L 1203 1215  A 4 4 0 0 1 1199 1219 L 0 1219  A 4 4 0 0 1 -4 1215 L -4 786  Z " fill-rule="nonzero" fill="#f2f2f2" stroke="none" />
    <path d="M -4.5 786  A 4.5 4.5 0 0 1 0 781.5 L 1199 781.5  A 4.5 4.5 0 0 1 1203.5 786 L 1203.5 1215  A 4.5 4.5 0 0 1 1199 1219.5 L 0 1219.5  A 4.5 4.5 0 0 1 -4.5 1215 L -4.5 786  Z " stroke-width="1" stroke="#aaaaaa" fill="none" stroke-opacity="0.250980392156863" />
  </g>
</svg>