<?xml version="1.0" encoding="utf-8"?>
<svg version="1.1" xmlns:xlink="http://www.w3.org/1999/xlink" width="1209px" height="193px" xmlns="http://www.w3.org/2000/svg">
  <g transform="matrix(1 0 0 1 5 -1225 )">
    <path d="M -4 1230  A 4 4 0 0 1 0 1226 L 1199 1226  A 4 4 0 0 1 1203 1230 L 1203 1413  A 4 4 0 0 1 1199 1417 L 0 1417  A 4 4 0 0 1 -4 1413 L -4 1230  Z " fill-rule="nonzero" fill="#f2f2f2" stroke="none" />
    <path d="M -4.5 1230  A 4.5 4.5 0 0 1 0 1225.5 L 1199 1225.5  A 4.5 4.5 0 0 1 1203.5 1230 L 1203.5 1413  A 4.5 4.5 0 0 1 1199 1417.5 L 0 1417.5  A 4.5 4.5 0 0 1 -4.5 1413 L -4.5 1230  Z " stroke-width="1" stroke="#aaaaaa" fill="none" stroke-opacity="0.250980392156863" />
  </g>
</svg>