<?xml version="1.0" encoding="utf-8"?>
<svg version="1.1" xmlns:xlink="http://www.w3.org/1999/xlink" width="1209px" height="135px" xmlns="http://www.w3.org/2000/svg">
  <g transform="matrix(1 0 0 1 4 -1425 )">
    <path d="M -3 1430  A 4 4 0 0 1 0.999999999999999 1426 L 1200 1426  A 4 4 0 0 1 1204 1430 L 1204 1555  A 4 4 0 0 1 1200 1559 L 1 1559  A 4 4 0 0 1 -3 1555 L -3 1430  Z " fill-rule="nonzero" fill="#f2f2f2" stroke="none" />
    <path d="M -3.5 1430  A 4.5 4.5 0 0 1 0.999999999999999 1425.5 L 1200 1425.5  A 4.5 4.5 0 0 1 1204.5 1430 L 1204.5 1555  A 4.5 4.5 0 0 1 1200 1559.5 L 1 1559.5  A 4.5 4.5 0 0 1 -3.5 1555 L -3.5 1430  Z " stroke-width="1" stroke="#aaaaaa" fill="none" stroke-opacity="0.250980392156863" />
  </g>
</svg>