<?xml version="1.0" encoding="utf-8"?>
<svg version="1.1" xmlns:xlink="http://www.w3.org/1999/xlink" width="1220px" height="58px" xmlns="http://www.w3.org/2000/svg">
  <defs>
    <filter x="-5px" y="742px" width="1220px" height="58px" filterUnits="userSpaceOnUse" id="filter91">
      <feOffset dx="0" dy="-5" in="SourceAlpha" result="shadowOffsetInner" />
      <feGaussianBlur stdDeviation="2.5" in="shadowOffsetInner" result="shadowGaussian" />
      <feComposite in2="shadowGaussian" operator="atop" in="SourceAlpha" result="shadowComposite" />
      <feColorMatrix type="matrix" values="0 0 0 0 0  0 0 0 0 0  0 0 0 0 0  0 0 0 0.349019607843137 0  " in="shadowComposite" />
    </filter>
    <g id="widget92">
      <path d="M 1 757  A 4 4 0 0 1 5 753 L 1205 753  A 4 4 0 0 1 1209 757 L 1209 795  A 4 4 0 0 1 1205 799 L 5 799  A 4 4 0 0 1 1 795 L 1 757  Z " fill-rule="nonzero" fill="#ffffff" stroke="none" />
      <path d="M 0.5 757  A 4.5 4.5 0 0 1 5 752.5 L 1205 752.5  A 4.5 4.5 0 0 1 1209.5 757 L 1209.5 795  A 4.5 4.5 0 0 1 1205 799.5 L 5 799.5  A 4.5 4.5 0 0 1 0.5 795 L 0.5 757  Z " stroke-width="1" stroke="#aaaaaa" fill="none" stroke-opacity="0.250980392156863" />
    </g>
  </defs>
  <g transform="matrix(1 0 0 1 5 -742 )">
    <use xlink:href="#widget92" filter="url(#filter91)" />
    <use xlink:href="#widget92" />
  </g>
</svg>