<?xml version="1.0" encoding="utf-8"?>
<svg version="1.1" xmlns:xlink="http://www.w3.org/1999/xlink" width="1181px" height="192px" xmlns="http://www.w3.org/2000/svg">
  <g transform="matrix(1 0 0 1 -24 -956 )">
    <path d="M 25 961  A 4 4 0 0 1 29 957 L 1200 957  A 4 4 0 0 1 1204 961 L 1204 1143  A 4 4 0 0 1 1200 1147 L 29 1147  A 4 4 0 0 1 25 1143 L 25 961  Z " fill-rule="nonzero" fill="#f2f2f2" stroke="none" />
    <path d="M 24.5 961  A 4.5 4.5 0 0 1 29 956.5 L 1200 956.5  A 4.5 4.5 0 0 1 1204.5 961 L 1204.5 1143  A 4.5 4.5 0 0 1 1200 1147.5 L 29 1147.5  A 4.5 4.5 0 0 1 24.5 1143 L 24.5 961  Z " stroke-width="1" stroke="#aaaaaa" fill="none" stroke-opacity="0.250980392156863" />
  </g>
</svg>