<?xml version="1.0" encoding="utf-8"?>
<svg version="1.1" xmlns:xlink="http://www.w3.org/1999/xlink" width="495px" height="352px" xmlns="http://www.w3.org/2000/svg">
  <g transform="matrix(1 0 0 1 -23 -665 )">
    <path d="M 24 670  A 4 4 0 0 1 28 666 L 513 666  A 4 4 0 0 1 517 670 L 517 1012  A 4 4 0 0 1 513 1016 L 28 1016  A 4 4 0 0 1 24 1012 L 24 670  Z " fill-rule="nonzero" fill="#f2f2f2" stroke="none" />
    <path d="M 23.5 670  A 4.5 4.5 0 0 1 28 665.5 L 513 665.5  A 4.5 4.5 0 0 1 517.5 670 L 517.5 1012  A 4.5 4.5 0 0 1 513 1016.5 L 28 1016.5  A 4.5 4.5 0 0 1 23.5 1012 L 23.5 670  Z " stroke-width="1" stroke="#aaaaaa" fill="none" stroke-opacity="0.250980392156863" />
  </g>
</svg>