<?xml version="1.0" encoding="utf-8"?>
<svg version="1.1" xmlns:xlink="http://www.w3.org/1999/xlink" width="495px" height="226px" xmlns="http://www.w3.org/2000/svg">
  <g transform="matrix(1 0 0 1 -23 -1024 )">
    <path d="M 24 1029  A 4 4 0 0 1 28 1025 L 513 1025  A 4 4 0 0 1 517 1029 L 517 1245  A 4 4 0 0 1 513 1249 L 28 1249  A 4 4 0 0 1 24 1245 L 24 1029  Z " fill-rule="nonzero" fill="#f2f2f2" stroke="none" />
    <path d="M 23.5 1029  A 4.5 4.5 0 0 1 28 1024.5 L 513 1024.5  A 4.5 4.5 0 0 1 517.5 1029 L 517.5 1245  A 4.5 4.5 0 0 1 513 1249.5 L 28 1249.5  A 4.5 4.5 0 0 1 23.5 1245 L 23.5 1029  Z " stroke-width="1" stroke="#aaaaaa" fill="none" stroke-opacity="0.250980392156863" />
  </g>
</svg>