<?xml version="1.0" encoding="utf-8"?>
<svg version="1.1" xmlns:xlink="http://www.w3.org/1999/xlink" width="43px" height="32px" xmlns="http://www.w3.org/2000/svg">
  <g transform="matrix(1 0 0 1 -225 -782 )">
    <path d="M 225 782  L 268 782  L 268 814  L 225 814  L 225 782  " fill-rule="nonzero" fill="#cccccc" stroke="none" />
    <path d="M 227 784  L 266 784  L 266 812  L 227 812  L 227 784  " fill-rule="nonzero" fill="#ffffff" stroke="none" />
    <path d="M 249.76 791.6  C 248.416 791.6  247.36 790.544  247.36 789.2  C 247.36 787.856  248.416 786.8  249.76 786.8  C 251.104 786.8  252.16 787.856  252.16 789.2  C 252.16 790.544  251.104 791.6  249.76 791.6  " fill-rule="nonzero" fill="#cccccc" stroke="none" />
    <path d="M 228 811  L 228 796.7  L 237.25 790.2  L 250.2 799.390697674419  L 257.6 794.1  L 265 799.390697674419  L 265 811  L 228 811  " fill-rule="nonzero" fill="#169bd5" stroke="none" />
  </g>
</svg>