<?xml version="1.0" encoding="utf-8"?>
<svg version="1.1" xmlns:xlink="http://www.w3.org/1999/xlink" width="7px" height="12px" xmlns="http://www.w3.org/2000/svg">
  <g transform="matrix(1 0 0 1 -19 -40 )">
    <path d="M 6.71266233766233 0.145444399350652  C 6.85660173160173 0.290026379870127  6.92857142857141 0.461241883116884  7 0.659090909090921  L 7 10.8863636363636  C 6.92857142857141 11.0842126623377  6.85660173160173 11.2554281655844  6.71266233766233 11.4000101461039  C 6.56872294372293 11.5445921266234  6.3982683982684 11.6168831168831  6.2012987012987 11.6168831168831  C 6.004329004329 11.6168831168831  5.83387445887446 11.5445921266234  5.68993506493506 11.4000101461039  L 0.59902597402598 6.28637378246754  C 0.455086580086581 6.14179180194806  0.383116883116895 5.9705762987013  0.383116883116895 5.77272727272728  C 0.383116883116895 5.57487824675326  0.455086580086581 5.4036627435065  0.59902597402598 5.25908076298703  L 5.68993506493506 0.145444399350652  C 5.83387445887446 0.00086241883117566  6.004329004329 -0.0714285714285694  6.2012987012987 -0.0714285714285694  C 6.3982683982684 -0.0714285714285694  6.56872294372293 0.00086241883117566  6.71266233766233 0.145444399350652  Z " fill-rule="nonzero" fill="#cccccc" stroke="none" transform="matrix(1 0 0 1 19 40 )" />
  </g>
</svg>