<?xml version="1.0" encoding="utf-8"?>
<svg version="1.1" xmlns:xlink="http://www.w3.org/1999/xlink" width="7px" height="12px" xmlns="http://www.w3.org/2000/svg">
  <g transform="matrix(1 0 0 1 -68 -117 )">
    <path d="M 6.32954545454544 5.33050933441552  C 6.47348484848482 5.47509131493507  6.54545454545453 5.64630681818187  6.54545454545453 5.84415584415592  C 6.54545454545453 6.04200487012986  6.47348484848482 6.21322037337666  6.32954545454544 6.35780235389609  L 1.23863636363637 11.4714387175325  C 1.09469696969697 11.6160206980519  0.924242424242436 11.6883116883117  0.72727272727272 11.6883116883117  C 0.530303030303031 11.6883116883117  0.359848484848499 11.6160206980519  0.215909090909093 11.4714387175325  C 0.0719696969697168 11.3268567370129  0 11.1556412337662  0 10.9577922077923  L 0 0.730519480519433  C 0 0.532670454545496  0.0719696969697168 0.361454951298697  0.215909090909093 0.216872970779264  C 0.359848484848499 0.0722909902597166  0.530303030303031 0  0.72727272727272 0  C 0.924242424242436 0  1.09469696969697 0.0722909902597166  1.23863636363637 0.216872970779264  L 6.32954545454544 5.33050933441552  Z " fill-rule="nonzero" fill="#cccccc" stroke="none" transform="matrix(1 0 0 1 68 117 )" />
  </g>
</svg>