<?xml version="1.0" encoding="utf-8"?>
<svg version="1.1" xmlns:xlink="http://www.w3.org/1999/xlink" width="10px" height="6px" xmlns="http://www.w3.org/2000/svg">
  <g transform="matrix(1 0 0 1 -366 -592 )">
    <path d="M 9.89979959919845 0.618556701030908  C 9.96659986639952 0.687285223367598  10 0.766323024055014  10 0.855670103092686  C 10 0.945017182130594  9.96659986639952 1.02405498281777  9.89979959919845 1.0927835051547  L 5.2304609218437 5.89690721649485  C 5.16366065464263 5.96563573883154  5.08684034736143 6  5 6  C 4.91315965263857 6  4.83633934535737 5.96563573883154  4.7695390781563 5.89690721649485  L 0.100200400801555 1.0927835051547  C 0.0334001336004803 1.02405498281777  0 0.945017182130594  0 0.855670103092686  C 0 0.766323024055014  0.0334001336004803 0.687285223367598  0.100200400801555 0.618556701030908  L 0.601202404809669 0.103092783505151  C 0.66800267201063 0.0343642611684622  0.744822979291939 0  0.831663326653256 0  C 0.918503674014687 0  0.995323981295883 0.0343642611684622  1.06212424849696 0.103092783505151  L 5 4.15463917525777  L 8.93787575150304 0.103092783505151  C 9.00467601870412 0.0343642611684622  9.08149632598531 0  9.16833667334674 0  C 9.25517702070806 0  9.33199732798937 0.0343642611684622  9.39879759519033 0.103092783505151  L 9.89979959919845 0.618556701030908  Z " fill-rule="nonzero" fill="#dcdfe6" stroke="none" transform="matrix(1 0 0 1 366 592 )" />
  </g>
</svg>