<?xml version="1.0" encoding="utf-8"?>
<svg version="1.1" xmlns:xlink="http://www.w3.org/1999/xlink" width="742px" height="322px" xmlns="http://www.w3.org/2000/svg">
  <g transform="matrix(1 0 0 1 -9 -778 )">
    <path d="M 10 783  A 4 4 0 0 1 14 779 L 746 779  A 4 4 0 0 1 750 783 L 750 1095  A 4 4 0 0 1 746 1099 L 14 1099  A 4 4 0 0 1 10 1095 L 10 783  Z " fill-rule="nonzero" fill="#f2f2f2" stroke="none" />
    <path d="M 9.5 783  A 4.5 4.5 0 0 1 14 778.5 L 746 778.5  A 4.5 4.5 0 0 1 750.5 783 L 750.5 1095  A 4.5 4.5 0 0 1 746 1099.5 L 14 1099.5  A 4.5 4.5 0 0 1 9.5 1095 L 9.5 783  Z " stroke-width="1" stroke="#aaaaaa" fill="none" stroke-opacity="0.250980392156863" />
  </g>
</svg>