<?xml version="1.0" encoding="utf-8"?>
<svg version="1.1" xmlns:xlink="http://www.w3.org/1999/xlink" width="742px" height="193px" xmlns="http://www.w3.org/2000/svg">
  <g transform="matrix(1 0 0 1 -9 -1103 )">
    <path d="M 10 1108  A 4 4 0 0 1 14 1104 L 746 1104  A 4 4 0 0 1 750 1108 L 750 1291  A 4 4 0 0 1 746 1295 L 14 1295  A 4 4 0 0 1 10 1291 L 10 1108  Z " fill-rule="nonzero" fill="#f2f2f2" stroke="none" />
    <path d="M 9.5 1108  A 4.5 4.5 0 0 1 14 1103.5 L 746 1103.5  A 4.5 4.5 0 0 1 750.5 1108 L 750.5 1291  A 4.5 4.5 0 0 1 746 1295.5 L 14 1295.5  A 4.5 4.5 0 0 1 9.5 1291 L 9.5 1108  Z " stroke-width="1" stroke="#aaaaaa" fill="none" stroke-opacity="0.250980392156863" />
  </g>
</svg>