<?xml version="1.0" encoding="utf-8"?>
<svg version="1.1" xmlns:xlink="http://www.w3.org/1999/xlink" width="741px" height="135px" xmlns="http://www.w3.org/2000/svg">
  <g transform="matrix(1 0 0 1 -9 -1303 )">
    <path d="M 10 1308  A 4 4 0 0 1 14 1304 L 745 1304  A 4 4 0 0 1 749 1308 L 749 1433  A 4 4 0 0 1 745 1437 L 14 1437  A 4 4 0 0 1 10 1433 L 10 1308  Z " fill-rule="nonzero" fill="#f2f2f2" stroke="none" />
    <path d="M 9.5 1308  A 4.5 4.5 0 0 1 14 1303.5 L 745 1303.5  A 4.5 4.5 0 0 1 749.5 1308 L 749.5 1433  A 4.5 4.5 0 0 1 745 1437.5 L 14 1437.5  A 4.5 4.5 0 0 1 9.5 1433 L 9.5 1308  Z " stroke-width="1" stroke="#aaaaaa" fill="none" stroke-opacity="0.250980392156863" />
  </g>
</svg>