<?xml version="1.0" encoding="utf-8"?>
<svg version="1.1" xmlns:xlink="http://www.w3.org/1999/xlink" width="744px" height="58px" xmlns="http://www.w3.org/2000/svg">
  <defs>
    <filter x="452px" y="739px" width="744px" height="58px" filterUnits="userSpaceOnUse" id="filter85">
      <feOffset dx="0" dy="-5" in="SourceAlpha" result="shadowOffsetInner" />
      <feGaussianBlur stdDeviation="2.5" in="shadowOffsetInner" result="shadowGaussian" />
      <feComposite in2="shadowGaussian" operator="atop" in="SourceAlpha" result="shadowComposite" />
      <feColorMatrix type="matrix" values="0 0 0 0 0  0 0 0 0 0  0 0 0 0 0  0 0 0 0.349019607843137 0  " in="shadowComposite" />
    </filter>
    <g id="widget86">
      <path d="M 458 754  A 4 4 0 0 1 462 750 L 1186 750  A 4 4 0 0 1 1190 754 L 1190 792  A 4 4 0 0 1 1186 796 L 462 796  A 4 4 0 0 1 458 792 L 458 754  Z " fill-rule="nonzero" fill="#ffffff" stroke="none" />
      <path d="M 457.5 754  A 4.5 4.5 0 0 1 462 749.5 L 1186 749.5  A 4.5 4.5 0 0 1 1190.5 754 L 1190.5 792  A 4.5 4.5 0 0 1 1186 796.5 L 462 796.5  A 4.5 4.5 0 0 1 457.5 792 L 457.5 754  Z " stroke-width="1" stroke="#aaaaaa" fill="none" stroke-opacity="0.250980392156863" />
    </g>
  </defs>
  <g transform="matrix(1 0 0 1 -452 -739 )">
    <use xlink:href="#widget86" filter="url(#filter85)" />
    <use xlink:href="#widget86" />
  </g>
</svg>