<svg t="1606396735033" class="icon" viewBox="0 0 1024 1024" version="1.1" xmlns="http://www.w3.org/2000/svg" p-id="1918" width="200" height="200"><path d="M132.171852 519.774815l160.237037 162.322963c7.016296 7.111111 18.962963 2.085926 18.962963-7.964445V349.487407c0-10.05037-11.946667-15.075556-18.962963-7.964444l-160.237037 162.322963c-4.361481 4.456296-4.361481 11.567407 0 15.928889zM875.614815 239.691852H162.417778c-11.757037 0-21.333333-9.576296-21.333334-21.333333s9.576296-21.333333 21.333334-21.333334h713.102222c11.757037 0 21.333333 9.576296 21.333333 21.333334s-9.481481 21.333333-21.238518 21.333333zM875.614815 435.38963H463.36c-11.757037 0-21.333333-9.576296-21.333333-21.333334s9.576296-21.333333 21.333333-21.333333h412.254815c11.757037 0 21.333333 9.576296 21.333333 21.333333s-9.576296 21.333333-21.333333 21.333334zM875.614815 630.992593H463.36c-11.757037 0-21.333333-9.576296-21.333333-21.333334s9.576296-21.333333 21.333333-21.333333h412.254815c11.757037 0 21.333333 9.576296 21.333333 21.333333s-9.576296 21.333333-21.333333 21.333334zM875.614815 826.595556H162.417778c-11.757037 0-21.333333-9.576296-21.333334-21.333334s9.576296-21.333333 21.333334-21.333333h713.102222c11.757037 0 21.333333 9.576296 21.333333 21.333333s-9.481481 21.333333-21.238518 21.333334z" p-id="1919" fill="#515151"></path></svg>