<svg t="1606445989321" class="icon" viewBox="0 0 1024 1024" version="1.1" xmlns="http://www.w3.org/2000/svg" p-id="3191" width="200" height="200"><path d="M800 960H224c-52.9 0-96-43.1-96-96V240c0-52.9 43.1-96 96-96h576c52.9 0 96 43.1 96 96v624c0 52.9-43.1 96-96 96zM224 208c-17.6 0-32 14.4-32 32v624c0 17.6 14.4 32 32 32h576c17.6 0 32-14.4 32-32V240c0-17.6-14.4-32-32-32H224z" fill="#707070" p-id="3192"></path><path d="M352 288c-17.7 0-32-14.3-32-32V96c0-17.7 14.3-32 32-32s32 14.3 32 32v160c0 17.7-14.3 32-32 32zM673 288c-17.7 0-32-14.3-32-32V96c0-17.7 14.3-32 32-32s32 14.3 32 32v160c0 17.7-14.3 32-32 32zM856 384H160c-17.7 0-32-14.3-32-32s14.3-32 32-32h696c17.7 0 32 14.3 32 32s-14.3 32-32 32zM352 576h-48c-17.7 0-32-14.3-32-32s14.3-32 32-32h48c17.7 0 32 14.3 32 32s-14.3 32-32 32zM352 768h-48c-17.7 0-32-14.3-32-32s14.3-32 32-32h48c17.7 0 32 14.3 32 32s-14.3 32-32 32zM536 576h-48c-17.7 0-32-14.3-32-32s14.3-32 32-32h48c17.7 0 32 14.3 32 32s-14.3 32-32 32zM536 768h-48c-17.7 0-32-14.3-32-32s14.3-32 32-32h48c17.7 0 32 14.3 32 32s-14.3 32-32 32z" fill="#707070" p-id="3193"></path><path d="M720 576h-48c-17.7 0-32-14.3-32-32s14.3-32 32-32h48c17.7 0 32 14.3 32 32s-14.3 32-32 32zM720 768h-48c-17.7 0-32-14.3-32-32s14.3-32 32-32h48c17.7 0 32 14.3 32 32s-14.3 32-32 32z" fill="#707070" p-id="3194"></path></svg>